<svg width="20" height="22" viewBox="0 0 20 22" fill="none" xmlns="http://www.w3.org/2000/svg">
<path d="M19.8 7.634C19.7885 7.53295 19.7664 7.43339 19.734 7.337V7.238C19.6811 7.1249 19.6106 7.02093 19.525 6.93L12.925 0.33C12.8341 0.244438 12.7301 0.173889 12.617 0.121C12.5842 0.116336 12.5508 0.116336 12.518 0.121C12.4063 0.0569154 12.2828 0.0157786 12.155 0H7.7C6.82478 0 5.98542 0.347678 5.36655 0.966548C4.74768 1.58542 4.4 2.42479 4.4 3.3V4.4H3.3C2.42479 4.4 1.58542 4.74768 0.966548 5.36655C0.347678 5.98542 0 6.82479 0 7.7V18.7C0 19.5752 0.347678 20.4146 0.966548 21.0335C1.58542 21.6523 2.42479 22 3.3 22H12.1C12.9752 22 13.8146 21.6523 14.4335 21.0335C15.0523 20.4146 15.4 19.5752 15.4 18.7V17.6H16.5C17.3752 17.6 18.2146 17.2523 18.8335 16.6335C19.4523 16.0146 19.8 15.1752 19.8 14.3V7.7C19.8 7.7 19.8 7.7 19.8 7.634ZM13.2 3.751L16.049 6.6H14.3C14.0083 6.6 13.7285 6.48411 13.5222 6.27782C13.3159 6.07153 13.2 5.79174 13.2 5.5V3.751ZM13.2 18.7C13.2 18.9917 13.0841 19.2715 12.8778 19.4778C12.6715 19.6841 12.3917 19.8 12.1 19.8H3.3C3.00826 19.8 2.72847 19.6841 2.52218 19.4778C2.31589 19.2715 2.2 18.9917 2.2 18.7V7.7C2.2 7.40826 2.31589 7.12847 2.52218 6.92218C2.72847 6.71589 3.00826 6.6 3.3 6.6H4.4V14.3C4.4 15.1752 4.74768 16.0146 5.36655 16.6335C5.98542 17.2523 6.82478 17.6 7.7 17.6H13.2V18.7ZM17.6 14.3C17.6 14.5917 17.4841 14.8715 17.2778 15.0778C17.0715 15.2841 16.7917 15.4 16.5 15.4H7.7C7.40826 15.4 7.12847 15.2841 6.92218 15.0778C6.71589 14.8715 6.6 14.5917 6.6 14.3V3.3C6.6 3.00826 6.71589 2.72847 6.92218 2.52218C7.12847 2.31589 7.40826 2.2 7.7 2.2H11V5.5C11 6.37521 11.3477 7.21458 11.9665 7.83345C12.5854 8.45232 13.4248 8.8 14.3 8.8H17.6V14.3Z" fill="#2087FF"/>
</svg>
